<?xml version="1.0" encoding="UTF-8"?>
<svg version="1.1" xmlns="http://www.w3.org/2000/svg" width="291" height="172">
<path d="M0 0 C10.43507446 6.40950538 20.52148292 10.14347327 32.85546875 7.75390625 C40.90549278 5.42114577 47.82248264 1.70407434 54.91796875 -2.68359375 C71.20640189 -12.64464118 85.34953602 -19.45120165 104.85546875 -16.24609375 C114.79117482 -13.41215941 122.49065927 -8.58892623 127.7265625 0.4140625 C139.02088001 23.82339188 133.66259835 50.74728912 125.9921875 74.41796875 C122.36529119 84.22816405 116.94617874 94.04407332 109.85546875 101.75390625 C109.19546875 101.75390625 108.53546875 101.75390625 107.85546875 101.75390625 C107.52546875 102.74390625 107.19546875 103.73390625 106.85546875 104.75390625 C105.4375 106.0703125 105.4375 106.0703125 103.66796875 107.31640625 C103.09691406 107.73019531 102.52585938 108.14398438 101.9375 108.5703125 C94.7363095 112.66404744 86.90809571 112.68305551 78.85546875 111.75390625 C67.63526688 107.75537902 60.11702872 97.23072527 53.08666992 88.13891602 C41.66548467 72.82982149 41.66548467 72.82982149 24.91796875 65.06640625 C15.87888882 65.73130875 8.50799529 73.32329914 2.85546875 79.75390625 C-0.65774056 83.95598013 -4.00549671 88.28080857 -7.35546875 92.61328125 C-8.42667969 93.98226562 -8.42667969 93.98226562 -9.51953125 95.37890625 C-10.16664062 96.21679688 -10.81375 97.0546875 -11.48046875 97.91796875 C-12.02960938 98.52382812 -12.57875 99.1296875 -13.14453125 99.75390625 C-13.80453125 99.75390625 -14.46453125 99.75390625 -15.14453125 99.75390625 C-15.52351563 100.64722656 -15.52351563 100.64722656 -15.91015625 101.55859375 C-17.29619497 104.02363729 -18.63171359 105.20371953 -20.89453125 106.87890625 C-21.549375 107.37648438 -22.20421875 107.8740625 -22.87890625 108.38671875 C-29.82290568 112.57706324 -37.27215098 112.48349756 -45.14453125 111.75390625 C-48.20375433 110.86123074 -50.55838293 109.59592699 -53.14453125 107.75390625 C-54.13453125 107.07328125 -55.12453125 106.39265625 -56.14453125 105.69140625 C-72.16481409 91.45599188 -80.69226812 66.43704527 -83.14453125 45.75390625 C-83.43206357 40.70846354 -83.46970096 35.68158595 -83.45703125 30.62890625 C-83.47314453 29.33597656 -83.48925781 28.04304688 -83.50585938 26.7109375 C-83.51172305 15.18295741 -81.27207486 6.48816857 -75.14453125 -3.24609375 C-74.30921875 -4.57640625 -74.30921875 -4.57640625 -73.45703125 -5.93359375 C-51.07146288 -28.31916212 -22.02410008 -13.70805742 0 0 Z M-59.14453125 12.12890625 C-65.6602775 21.85461573 -63.86134222 35.70593019 -62.01953125 46.69140625 C-58.92823133 62.22447055 -53.18396971 78.08364273 -42.14453125 89.75390625 C-39.29128688 91.18052844 -37.30998576 91.06424493 -34.14453125 90.75390625 C-30.43928244 88.16082683 -27.69913654 85.21793772 -24.89453125 81.69140625 C-24.11464844 80.72203125 -23.33476563 79.75265625 -22.53125 78.75390625 C-20.99074181 76.81755552 -19.45158009 74.88013245 -17.9140625 72.94140625 C2.40245133 47.62667044 2.40245133 47.62667044 18.02490234 45.4519043 C20.26943932 45.31751134 22.48220045 45.2853475 24.73046875 45.31640625 C25.91890381 45.33102905 25.91890381 45.33102905 27.13134766 45.34594727 C39.69600702 45.72610875 48.96153761 51.94220888 57.8203125 60.6953125 C59.56890997 62.66608471 61.21574985 64.69161662 62.85546875 66.75390625 C64.51924915 68.75640415 66.18589579 70.75625941 67.85546875 72.75390625 C68.71494449 73.78637448 69.57432125 74.81892512 70.43359375 75.8515625 C77.42291455 84.55971715 77.42291455 84.55971715 85.85546875 91.75390625 C88.7901195 91.55857292 90.38639996 91.14192644 92.6640625 89.2578125 C101.55640333 78.659507 105.95607937 67.86894258 109.85546875 54.75390625 C110.19964844 53.64917969 110.54382813 52.54445312 110.8984375 51.40625 C112.72609968 44.75630546 113.15159354 38.30104529 113.23046875 31.44140625 C113.2444873 30.60496582 113.25850586 29.76852539 113.27294922 28.90673828 C113.21318754 21.20667612 111.47082521 14.36926271 105.85546875 8.75390625 C102.48931967 6.42591529 98.96773395 4.2679394 94.85546875 3.75390625 C93.86546875 3.63015625 92.87546875 3.50640625 91.85546875 3.37890625 C81.86337688 3.65237403 72.68252009 10.55964291 64.50634766 15.65551758 C48.6196013 25.54235709 31.71293327 32.79643117 12.6171875 28.53125 C1.97337989 25.53532678 -6.9451204 20.72659856 -16.24072266 14.92675781 C-19.38026182 12.99262776 -22.57040612 11.14976576 -25.76953125 9.31640625 C-26.87554687 8.67832031 -27.9815625 8.04023437 -29.12109375 7.3828125 C-39.5527191 1.76267326 -51.32699527 1.94311672 -59.14453125 12.12890625 Z " fill="#2229F7" transform="translate(115.14453125,43.24609375)"/>
<path d="M0 0 C-1.38135663 2.76271327 -3.0109033 3.01943044 -5.8125 4.25 C-10.37681017 6.47681038 -12.74551233 8.3031507 -15 13 C-20.98723603 31.00525162 -15.36185968 52.13923795 -8 69 C-3.09782388 79.40705257 -3.09782388 79.40705257 5 87 C7.87306228 87.50095023 7.87306228 87.50095023 11 87 C12.98369751 85.38172045 14.37500359 83.93819404 16 82 C16.58523437 81.35675781 17.17046875 80.71351562 17.7734375 80.05078125 C21.43559155 76.01951681 24.9142248 71.88044301 28.3125 67.625 C37.2767542 56.62411662 48.25384209 43.77559846 63.16967773 41.69775391 C65.41410664 41.56360184 67.62685265 41.53144292 69.875 41.5625 C71.06343506 41.5771228 71.06343506 41.5771228 72.27587891 41.59204102 C85.07522846 41.97930339 94.25331336 48.42483929 103.3046875 57.24609375 C107.376417 61.66832011 111.09849064 66.36372117 114.85180664 71.0546875 C121.86537247 80.73965129 121.86537247 80.73965129 131 88 C133.77444122 87.82045219 135.41081667 87.47337334 137.58984375 85.72265625 C139.11241664 83.84702298 140.58160957 81.95615169 142 80 C142.49628906 79.32195312 142.99257812 78.64390625 143.50390625 77.9453125 C148.7617523 70.01049522 151.31175661 61.04152069 154 52 C154.34417969 50.89527344 154.68835938 49.79054687 155.04296875 48.65234375 C156.87063093 42.00239921 157.29612479 35.54713904 157.375 28.6875 C157.38901855 27.85105957 157.40303711 27.01461914 157.41748047 26.15283203 C157.36398465 19.26010192 156.19351847 13.59758766 151.625 8.1875 C147.98169932 5.1514161 144.71329437 2.87283229 140 2 C140 1.34 140 0.68 140 0 C147.78455876 -0.42290359 153.51665758 0.00270536 159.6875 5.3125 C169.91615213 17.19985247 168.944409 31.07302391 168 46 C166.70941826 57.81832213 162.79615911 67.70834493 157 78 C156.48050781 78.99902344 155.96101562 79.99804688 155.42578125 81.02734375 C145.81801965 99.41069862 145.81801965 99.41069862 136.171875 102.60546875 C126.82411339 104.30353336 118.88424904 103.39294358 111 98 C109.01472495 96.41896648 107.61294208 94.98929524 106 93 C106 92.34 106 91.68 106 91 C105.44957031 90.96003906 104.89914063 90.92007813 104.33203125 90.87890625 C100.81205108 89.55228056 98.97208016 86.79411777 96.6875 83.9375 C95.70316788 82.74736037 94.71879298 81.55725612 93.734375 80.3671875 C92.16703173 78.44596249 90.61640823 76.51505268 89.078125 74.5703125 C84.48297263 68.94672126 79.0553669 64.41435596 71.93359375 62.421875 C65.71795501 61.86937378 60.78823885 65.42029428 56 69 C48.99697649 75.00259158 43.40535946 82.41240254 37.9296875 89.7890625 C37.25164062 90.68367188 36.57359375 91.57828125 35.875 92.5 C35.27429688 93.3146875 34.67359375 94.129375 34.0546875 94.96875 C31.56018483 97.43479827 29.35905281 98.12455281 26 99 C26 99.66 26 100.32 26 101 C18.82446214 103.73353823 9.88308285 104.75290154 2.5625 102.125 C0.50332038 100.9023621 -1.2114803 99.59069246 -3 98 C-3.60199219 97.49210937 -4.20398438 96.98421875 -4.82421875 96.4609375 C-15.59369774 86.60254242 -20.72743862 71.79441708 -24.8125 58.125 C-25.0194751 57.43591553 -25.2264502 56.74683105 -25.43969727 56.03686523 C-28.95178923 43.74676152 -30.74995748 26.28880199 -26.171875 14.109375 C-23.06429081 8.51572346 -19.0714547 4.26588898 -13.625 0.9375 C-9.0030351 -0.25783575 -4.74356528 -0.25769872 0 0 Z " fill="#09C5F7" transform="translate(70,46)"/>
<path d="M0 0 C10.43507446 6.40950538 20.52148292 10.14347327 32.85546875 7.75390625 C40.90549278 5.42114577 47.82248264 1.70407434 54.91796875 -2.68359375 C71.20640189 -12.64464118 85.34953602 -19.45120165 104.85546875 -16.24609375 C114.89126177 -13.38361188 122.58264462 -8.46449563 127.921875 0.5859375 C129.47995269 4.20406769 129.75601353 7.84802836 129.85546875 11.75390625 C128.86546875 10.73296875 128.86546875 10.73296875 127.85546875 9.69140625 C118.02016806 -0.11595324 109.02649781 -6.3041388 94.66796875 -6.55859375 C86.69082069 -6.5251232 80.0866297 -4.17201932 73.171875 -0.47265625 C72.12216774 0.07486801 72.12216774 0.07486801 71.05125427 0.63345337 C68.83587329 1.79063988 66.62670959 2.95910331 64.41796875 4.12890625 C61.50467174 5.66151348 58.58904869 7.1896292 55.671875 8.71484375 C54.9770401 9.0781781 54.2822052 9.44151245 53.5663147 9.81585693 C40.3027815 16.71513897 28.12590711 21.46801181 13.02734375 17.83203125 C1.79734507 14.15348867 -8.44488899 7.8646512 -18.70117188 2.11474609 C-21.82317949 0.3759301 -24.96571479 -1.30069425 -28.14453125 -2.93359375 C-28.99015625 -3.37058594 -29.83578125 -3.80757812 -30.70703125 -4.2578125 C-40.30632013 -8.14983187 -51.47559782 -6.89432253 -61.03125 -3.6328125 C-69.13102392 -0.02500856 -74.58971343 5.52599648 -79.0859375 13.06640625 C-79.43527344 13.62328125 -79.78460938 14.18015625 -80.14453125 14.75390625 C-80.47453125 14.75390625 -80.80453125 14.75390625 -81.14453125 14.75390625 C-82.24229431 6.52068332 -77.59001667 0.68415068 -73.39453125 -6.05859375 C-50.72384675 -28.09953702 -22.15635218 -13.79037267 0 0 Z " fill="#0ABEEE" transform="translate(115.14453125,43.24609375)"/>
<path d="M0 0 C1.18843506 0.0146228 1.18843506 0.0146228 2.40087891 0.02954102 C15.20022846 0.41680339 24.37831336 6.86233929 33.4296875 15.68359375 C37.501417 20.10582011 41.22349064 24.80122117 44.97680664 29.4921875 C51.99037247 39.17715129 51.99037247 39.17715129 61.125 46.4375 C64.60856346 46.13107544 66.16446077 45.41119282 69.125 43.4375 C68.05098892 46.35267292 67.34689824 48.21560176 65.125 50.4375 C60.5316227 52.40609027 56.06519035 53.36378569 51.125 52.4375 C46.08901908 49.29001193 42.88422465 44.76395896 39.2578125 40.1171875 C35.74651061 35.70555179 31.96652828 31.56188053 28.125 27.4375 C27.3928125 26.63957031 26.660625 25.84164062 25.90625 25.01953125 C19.96330948 18.77316595 12.45710516 11.91888811 3.453125 11.234375 C-9.56963048 11.03605893 -16.72189962 16.56394924 -25.90234375 25.27734375 C-32.09326211 31.28367722 -37.59905499 37.60703547 -42.875 44.4375 C-49.18927272 52.1612086 -49.18927272 52.1612086 -52.7578125 52.74609375 C-58.80716382 53.09387876 -61.83406795 51.62986383 -66.44140625 47.75 C-66.91449219 47.316875 -67.38757813 46.88375 -67.875 46.4375 C-67.545 45.7775 -67.215 45.1175 -66.875 44.4375 C-66.215 44.7675 -65.555 45.0975 -64.875 45.4375 C-62.00193772 45.93845023 -62.00193772 45.93845023 -58.875 45.4375 C-56.89130249 43.81922045 -55.49999641 42.37569404 -53.875 40.4375 C-53.28976563 39.79425781 -52.70453125 39.15101562 -52.1015625 38.48828125 C-48.43940845 34.45701681 -44.9607752 30.31794301 -41.5625 26.0625 C-30.57836731 12.58283286 -18.44292731 -0.25478021 0 0 Z " fill="#202BF4" transform="translate(139.875,87.5625)"/>
<path d="M0 0 C1.5787793 0.81984375 1.5787793 0.81984375 3.18945312 1.65625 C10.92925613 5.73351227 10.92925613 5.73351227 12.0625 8 C6.4093076 6.3904105 1.66123681 4.394204 -3.2109375 1.0859375 C-5.06113756 -0.17310268 -5.06113756 -0.17310268 -7.9375 -1 C-8.2675 -0.01 -8.5975 0.98 -8.9375 2 C-11.55700778 3.30975389 -13.39275789 3.04817346 -16.3203125 2.95703125 C-17.40570313 2.93576172 -18.49109375 2.91449219 -19.609375 2.89257812 C-21.888338 2.83972887 -24.16705826 2.77487359 -26.4453125 2.69726562 C-35.12775978 2.5590427 -39.71581553 4.18554369 -46.9375 9 C-47.2675 8.34 -47.5975 7.68 -47.9375 7 C-48.9275 7.33 -49.9175 7.66 -50.9375 8 C-51.2675 7.34 -51.5975 6.68 -51.9375 6 C-54.9075 8.475 -54.9075 8.475 -57.9375 11 C-57.9375 6.97031319 -56.45545848 5.74341556 -53.828125 2.83984375 C-37.90189499 -12.65861562 -17.98497668 -9.58595866 0 0 Z " fill="#2228F9" transform="translate(95.9375,44)"/>
<path d="M0 0 C3.85252035 0.56394919 6.33925455 1.65821582 9.5625 3.8125 C14.25925567 6.74534743 18.87553997 8.43330557 24.1484375 10.0546875 C28.00633559 11.33360714 31.42618 13.07563538 35 15 C34.36578125 15.28617188 33.7315625 15.57234375 33.078125 15.8671875 C30.58438799 17.22655542 30.03567876 18.41080309 29 21 C33.82902749 26.57808456 41.73854385 27.89949633 48.79296875 28.4765625 C53.19335222 28.75269554 57.59231567 28.90205146 62 29 C62 29.33 62 29.66 62 30 C42.07021265 32.15299892 27.57562393 26.57496121 10.90380859 16.17285156 C7.76426943 14.23872151 4.57412513 12.39585951 1.375 10.5625 C0.26898438 9.92441406 -0.83703125 9.28632812 -1.9765625 8.62890625 C-4.61327637 7.20835111 -7.19475883 6.03762638 -10 5 C-10 4.67 -10 4.34 -10 4 C-9.04287109 3.81824219 -9.04287109 3.81824219 -8.06640625 3.6328125 C-7.24011719 3.46523438 -6.41382812 3.29765625 -5.5625 3.125 C-4.73878906 2.96257813 -3.91507812 2.80015625 -3.06640625 2.6328125 C-2.38449219 2.42398438 -1.70257813 2.21515625 -1 2 C-0.67 1.34 -0.34 0.68 0 0 Z " fill="#2229F5" transform="translate(88,43)"/>
<path d="M0 0 C0.99 0 1.98 0 3 0 C3.32613281 0.71027344 3.65226562 1.42054687 3.98828125 2.15234375 C4.64376953 3.53099609 4.64376953 3.53099609 5.3125 4.9375 C5.74175781 5.85402344 6.17101563 6.77054688 6.61328125 7.71484375 C7.85078661 10.30969412 7.85078661 10.30969412 11 11 C12.68359375 12.7421875 12.68359375 12.7421875 14.4375 14.875 C17.70916477 18.84198502 21.12330166 22.15263313 26 24 C33.00018062 24.50305805 40.09811705 24.31464437 47 23 C47 22.34 47 21.68 47 21 C48.32 20.34 49.64 19.68 51 19 C49.61022576 22.27589642 48.10120808 24.01422192 45.25 26.125 C44.59515625 26.62257812 43.9403125 27.12015625 43.265625 27.6328125 C36.32162557 31.82315699 28.87238027 31.72959131 21 31 C17.94077692 30.10732449 15.58614832 28.84202074 13 27 C12.01 26.319375 11.02 25.63875 10 24.9375 C4.43950896 19.95909893 -1.11031063 13.50488218 -2.125 5.9375 C-2 2 -2 2 0 0 Z " fill="#1D30EC" transform="translate(49,124)"/>
<path d="M0 0 C9.26001948 1.41337139 15.4103 7.91851511 21 15 C21.66 14.34 22.32 13.68 23 13 C30.24849639 32.8125568 25.31368948 56.52214016 19 76 C18.34 76.99 17.68 77.98 17 79 C17.33 74.05 17.66 69.1 18 64 C18.66 64 19.32 64 20 64 C20 61.69 20 59.38 20 57 C20.66 57 21.32 57 22 57 C21.97679687 56.23816406 21.95359375 55.47632813 21.9296875 54.69140625 C21.82832135 48.89181449 22.11323655 43.78354549 23.546875 38.171875 C24.31072837 34.5106468 24.53324055 30.70915852 24 27 C23.34 26.34 22.68 25.68 22 25 C21.7525 23.96875 21.505 22.9375 21.25 21.875 C20.02316912 17.24030557 17.41176683 13.34646986 14 10 C11.86311586 9.25007462 10.25797183 9 8 9 C8.66 11.31 9.32 13.62 10 16 C9.01 15.34 8.02 14.68 7 14 C7 13.34 7 12.68 7 12 C6.278125 11.71125 5.55625 11.4225 4.8125 11.125 C3.09631109 10.43852444 1.39062828 9.72386222 -0.29296875 8.9609375 C-4.24310245 7.55872554 -8.09932956 7.55115563 -12.2578125 7.34375 C-15 7 -15 7 -18 5 C-15.62468606 4.9456035 -13.25064117 4.90614136 -10.875 4.875 C-10.20984375 4.85824219 -9.5446875 4.84148438 -8.859375 4.82421875 C-4.50483944 4.78152722 -1.04399886 5.40003783 3 7 C3.33 5.35 3.66 3.7 4 2 C2.68 1.34 1.36 0.68 0 0 Z " fill="#1932F2" transform="translate(223,39)"/>
<path d="M0 0 C8.24713819 5.08459925 15.41797149 10.77418378 21.36328125 18.45703125 C20.37328125 18.78703125 19.38328125 19.11703125 18.36328125 19.45703125 C17.77546875 18.52890625 17.77546875 18.52890625 17.17578125 17.58203125 C15.08610634 15.13206757 13.38864798 14.43823127 10.36328125 13.45703125 C10.36328125 14.11703125 10.36328125 14.77703125 10.36328125 15.45703125 C7.06716808 16.52342081 5.63628199 16.56509404 2.36328125 15.26953125 C-0.52396931 13.52515071 -3.07258993 11.64408231 -5.63671875 9.45703125 C-4.97671875 9.45703125 -4.31671875 9.45703125 -3.63671875 9.45703125 C-3.49234375 8.67328125 -3.34796875 7.88953125 -3.19921875 7.08203125 C-2.63671875 4.45703125 -2.63671875 4.45703125 -1.63671875 2.45703125 C-4.60671875 1.79703125 -7.57671875 1.13703125 -10.63671875 0.45703125 C-10.63671875 -0.20296875 -10.63671875 -0.86296875 -10.63671875 -1.54296875 C-13.93671875 -1.54296875 -17.23671875 -1.54296875 -20.63671875 -1.54296875 C-20.63671875 -0.88296875 -20.63671875 -0.22296875 -20.63671875 0.45703125 C-21.66796875 0.56015625 -22.69921875 0.66328125 -23.76171875 0.76953125 C-27.63949008 1.26328987 -27.63949008 1.26328987 -30.82421875 3.08203125 C-33.63671875 4.45703125 -33.63671875 4.45703125 -36.01171875 4.14453125 C-36.54796875 3.91765625 -37.08421875 3.69078125 -37.63671875 3.45703125 C-26.36146353 -3.17547182 -12.42225545 -6.07167235 0 0 Z " fill="#2025DC" transform="translate(156.63671875,90.54296875)"/>
<path d="M0 0 C0.66 0 1.32 0 2 0 C2.89756951 1.0476549 3.74374295 2.1396628 4.5625 3.25 C8.92362468 8.41835208 13.50164391 10.62684202 20.22265625 11.34375 C28.17667847 11.56291938 33.70728813 11.06298778 39.6875 5.5 C40.450625 4.675 41.21375 3.85 42 3 C43.31175986 1.97186389 44.6369893 0.95915568 46 0 C45.835 1.03125 45.67 2.0625 45.5 3.125 C45.06678152 6.48244326 44.91764297 9.62336157 45 13 C36.62099913 17.90092504 29.69120833 18.99949772 20 18 C12.34410684 15.29305802 6.13551679 9.14156336 1 3 C0.67 2.01 0.34 1.02 0 0 Z " fill="#1C30F3" transform="translate(174,137)"/>
<path d="M0 0 C4.64609113 3.62588121 8.27174689 7.47406188 11.875 12.125 C12.37257812 12.74503906 12.87015625 13.36507812 13.3828125 14.00390625 C17 18.62476391 17 18.62476391 17 22 C17.66 22 18.32 22 19 22 C19 22.66 19 23.32 19 24 C21.64 24 24.28 24 27 24 C27 24.33 27 24.66 27 25 C26.2575 25.12375 25.515 25.2475 24.75 25.375 C22.05299403 25.85561805 22.05299403 25.85561805 20.0625 27.0625 C17.07243596 28.42162002 15.25620863 28.52099338 12 28 C9.66675438 26.27127711 7.71402379 24.34614604 6 22 C6 21.34 6 20.68 6 20 C5.34 20 4.68 20 4 20 C3.731875 19.236875 3.46375 18.47375 3.1875 17.6875 C2.20337255 15.02287549 2.20337255 15.02287549 0.5 13.5 C-1.4346384 11.5653616 -2.10217772 9.55534033 -3 7 C-2.01 7 -1.02 7 0 7 C0.93423645 3.98968256 1.04449911 3.13349732 0 0 Z " fill="#0BC7FB" transform="translate(170,117)"/>
<path d="M0 0 C3.70732289 2.06691453 6.66194932 4.3383169 9.6875 7.3125 C10.45449219 8.05113281 11.22148437 8.78976563 12.01171875 9.55078125 C14.22281451 12.27446895 15.09201409 14.63511103 16 18 C15.484375 18.4125 14.96875 18.825 14.4375 19.25 C13.963125 19.8275 13.48875 20.405 13 21 C13.24756445 23.07361988 13.24756445 23.07361988 14 25 C14 25.66 14 26.32 14 27 C15.32 27.66 16.64 28.32 18 29 C17.67 30.32 17.34 31.64 17 33 C13.03761728 28.55346762 9.2139838 24.03181331 5.5 19.375 C1.9767968 15.0299175 -1.61028281 11.45573481 -6 8 C-4.0625 7.4375 -4.0625 7.4375 -2 7 C-1.67 7.33 -1.34 7.66 -1 8 C-0.67 7.01 -0.34 6.02 0 5 C0.66 5 1.32 5 2 5 C1.34 3.35 0.68 1.7 0 0 Z " fill="#0BC3F3" transform="translate(156,104)"/>
<path d="M0 0 C-0.33 1.65 -0.66 3.3 -1 5 C-2.65 5 -4.3 5 -6 5 C-6.33 5.99 -6.66 6.98 -7 8 C-7.66 8 -8.32 8 -9 8 C-9 8.66 -9 9.32 -9 10 C-9.99 10.33 -10.98 10.66 -12 11 C-12.33 12.65 -12.66 14.3 -13 16 C-13.99 16.33 -14.98 16.66 -16 17 C-16.33 17.66 -16.66 18.32 -17 19 C-18.65 19 -20.3 19 -22 19 C-22 19.99 -22 20.98 -22 22 C-23.98 22.33 -25.96 22.66 -28 23 C-28 22.34 -28 21.68 -28 21 C-26.68 21 -25.36 21 -24 21 C-24.33 19.68 -24.66 18.36 -25 17 C-24.01 16.67 -23.02 16.34 -22 16 C-22 15.34 -22 14.68 -22 14 C-22.86625 14.495 -23.7325 14.99 -24.625 15.5 C-30.3907724 18.04266982 -36.83958491 17.23069516 -43 17 C-43 16.34 -43 15.68 -43 15 C-43.78375 14.87625 -44.5675 14.7525 -45.375 14.625 C-48 14 -48 14 -50 12 C-49.33355469 12.15597656 -48.66710937 12.31195313 -47.98046875 12.47265625 C-32.17220051 15.81118563 -20.2539269 11.3790709 -6.95019531 2.99804688 C-2.18285032 0 -2.18285032 0 0 0 Z " fill="#0CB3E3" transform="translate(176,38)"/>
<path d="M0 0 C4.06225548 0.57823096 6.84762346 1.89117737 10.3125 4.0625 C11.19550781 4.61035156 12.07851562 5.15820312 12.98828125 5.72265625 C13.65214844 6.14417969 14.31601563 6.56570312 15 7 C14.67 10.3 14.34 13.6 14 17 C9.06171219 15.20425898 4.67702497 12.57875832 0.171875 9.921875 C-3.14236588 7.99096944 -6.39304933 6.31161843 -10 5 C-10 4.67 -10 4.34 -10 4 C-9.04287109 3.81824219 -9.04287109 3.81824219 -8.06640625 3.6328125 C-7.24011719 3.46523438 -6.41382812 3.29765625 -5.5625 3.125 C-4.73878906 2.96257813 -3.91507812 2.80015625 -3.06640625 2.6328125 C-2.38449219 2.42398438 -1.70257813 2.21515625 -1 2 C-0.67 1.34 -0.34 0.68 0 0 Z " fill="#2323E6" transform="translate(88,43)"/>
<path d="M0 0 C0.99 0.33 1.98 0.66 3 1 C4.1128641 4.73604375 4.614209 6.77158201 2.8359375 10.328125 C1.29572632 12.61947366 -0.30710796 14.81939383 -2 17 C-2.52078125 17.74894531 -3.0415625 18.49789062 -3.578125 19.26953125 C-4.04734375 19.84058594 -4.5165625 20.41164062 -5 21 C-5.66 21 -6.32 21 -7 21 C-7.33 21.99 -7.66 22.98 -8 24 C-8.99 24.33 -9.98 24.66 -11 25 C-12.70481079 17.55622221 -12.70481079 17.55622221 -11.0234375 13.84375 C-9.6875 11.9375 -9.6875 11.9375 -7 9 C-6.34 9 -5.68 9 -5 9 C-3.98379547 6.18708867 -3.98379547 6.18708867 -3.625 3.9375 C-3 2 -3 2 0 0 Z " fill="#2527F8" transform="translate(230,124)"/>
<path d="M0 0 C1.32 0.66 2.64 1.32 4 2 C3.3709375 2.3403125 2.741875 2.680625 2.09375 3.03125 C-6.78781327 8.06056896 -13.00818737 14.2241347 -18.87109375 22.53125 C-19.24363281 23.0159375 -19.61617188 23.500625 -20 24 C-20.33 24 -20.66 24 -21 24 C-21 21.36 -21 18.72 -21 16 C-22.32 15.67 -23.64 15.34 -25 15 C-22.78182541 10.4404189 -20.54594686 9.07532357 -16 7 C-15.67 6.34 -15.34 5.68 -15 5 C-13.3603125 5.0928125 -13.3603125 5.0928125 -11.6875 5.1875 C-7.61520058 4.98043393 -7.52511655 4.7546726 -5 2 C-2.3125 1.8125 -2.3125 1.8125 0 2 C0 1.34 0 0.68 0 0 Z " fill="#09BEE6" transform="translate(132,107)"/>
<path d="M0 0 C0 0.66 0 1.32 0 2 C0.99 2.33 1.98 2.66 3 3 C3 3.33 3 3.66 3 4 C3.55461914 3.98952637 4.10923828 3.97905273 4.68066406 3.96826172 C7.20372959 3.92657996 9.72672253 3.90063562 12.25 3.875 C13.55904297 3.84986328 13.55904297 3.84986328 14.89453125 3.82421875 C15.73886719 3.81777344 16.58320312 3.81132813 17.453125 3.8046875 C18.22817383 3.79421387 19.00322266 3.78374023 19.80175781 3.77294922 C22.25883539 4.02673444 23.87311542 4.77555848 26 6 C24.7934375 5.95359375 23.586875 5.9071875 22.34375 5.859375 C20.72919164 5.82182713 19.11460622 5.78543023 17.5 5.75 C16.70851563 5.71648438 15.91703125 5.68296875 15.1015625 5.6484375 C7.72343287 5.52748456 3.03147681 7.97901546 -3 12 C-3.33 11.34 -3.66 10.68 -4 10 C-4.99 10.33 -5.98 10.66 -7 11 C-7.33 10.34 -7.66 9.68 -8 9 C-10.97 11.475 -10.97 11.475 -14 14 C-14 9.92982221 -12.35546275 8.65913132 -9.7265625 5.71875 C-7.05230774 3.05659594 -3.93894752 0 0 0 Z " fill="#1D2CF6" transform="translate(52,41)"/>
<path d="M0 0 C0.33 0 0.66 0 1 0 C0.99476318 0.99854004 0.98952637 1.99708008 0.98413086 3.02587891 C0.96595758 6.74950251 0.9545231 10.47312224 0.94506836 14.19677734 C0.94005625 15.80485698 0.93324481 17.4129321 0.92456055 19.02099609 C0.91235774 21.33952961 0.90674036 23.65800259 0.90234375 25.9765625 C0.89718246 26.68930328 0.89202118 27.40204407 0.88670349 28.13638306 C0.88625245 32.19856429 1.21224393 36.01488106 2 40 C2.66 40 3.32 40 4 40 C4.66 45.28 5.32 50.56 6 56 C6.66 56 7.32 56 8 56 C8 58.97 8 61.94 8 65 C8.66 65 9.32 65 10 65 C10 65.66 10 66.32 10 67 C10.66 67 11.32 67 12 67 C12 69.31 12 71.62 12 74 C7.06215487 71.53107744 5.5687912 61.65590066 3.85546875 56.66796875 C-0.15435975 44.24801306 -1.30949876 32.59068353 -1.1875 19.5625 C-1.18603851 18.21419334 -1.18538374 16.86588556 -1.18554688 15.51757812 C-1.13730721 4.84589303 -1.13730721 4.84589303 0 0 Z " fill="#191995" transform="translate(33,54)"/>
<path d="M0 0 C0.33 0 0.66 0 1 0 C3.87208306 17.64941367 3.25841538 44.61237694 -7 60 C-6.67 55.05 -6.34 50.1 -6 45 C-5.34 45 -4.68 45 -4 45 C-4 42.69 -4 40.38 -4 38 C-3.34 38 -2.68 38 -2 38 C-2.02320313 37.23816406 -2.04640625 36.47632813 -2.0703125 35.69140625 C-2.23562935 26.23292051 -2.23562935 26.23292051 -1 21.8125 C0.85723087 14.77594924 0.14911762 7.21563604 0 0 Z " fill="#14137E" transform="translate(247,58)"/>
<path d="M0 0 C1.89712136 2.84568203 3.04670991 5.40008633 4.3125 8.5625 C6.32457277 13.48222689 8.53695603 18.22470323 10.984375 22.94140625 C12 25 12 25 13 28 C10 27 10 27 8.83203125 25.22265625 C8.49558594 24.50980469 8.15914062 23.79695313 7.8125 23.0625 C7.46832031 22.35222656 7.12414063 21.64195312 6.76953125 20.91015625 C6 19 6 19 6 17 C4.02 17.99 4.02 17.99 2 19 C2 21.31 2 23.62 2 26 C-0.10633718 24.29171079 -0.93801608 23.47851584 -1.29296875 20.73828125 C-1.25816406 19.93777344 -1.22335938 19.13726562 -1.1875 18.3125 C-1.16042969 17.50425781 -1.13335937 16.69601563 -1.10546875 15.86328125 C-1.05326172 14.94095703 -1.05326172 14.94095703 -1 14 C-1.66 14 -2.32 14 -3 14 C-2.67 12.35 -2.34 10.7 -2 9 C-1.34 9 -0.68 9 0 9 C0 6.03 0 3.06 0 0 Z " fill="#2325F9" transform="translate(46,107)"/>
<path d="M0 0 C0.66 0 1.32 0 2 0 C2.89756951 1.0476549 3.74374295 2.1396628 4.5625 3.25 C8.01645655 7.47531161 11.94229128 9.19046421 17 11 C17 11.99 17 12.98 17 14 C22.61 14.66 28.22 15.32 34 16 C34 15.34 34 14.68 34 14 C35.65 14 37.3 14 39 14 C39 13.34 39 12.68 39 12 C40.98 12 42.96 12 45 12 C41.09563463 16.50503696 37.34835135 17.72863495 31.484375 18.40625 C20.88454094 18.67235462 15.25568648 16.68944408 7.42578125 9.703125 C1.2596709 3.7790127 1.2596709 3.7790127 0 0 Z " fill="#0B2271" transform="translate(174,137)"/>
<path d="M0 0 C0.90105469 0.00902344 1.80210938 0.01804688 2.73046875 0.02734375 C3.41753906 0.03894531 4.10460937 0.05054688 4.8125 0.0625 C3.43114337 2.82521327 1.8015967 3.08193044 -1 4.3125 C-6.22443052 6.86136624 -8.91060601 9.38029408 -10.859375 15 C-11.35820927 16.67176891 -11.78035636 18.36606816 -12.1875 20.0625 C-12.5175 20.0625 -12.8475 20.0625 -13.1875 20.0625 C-12.6925 15.6075 -12.6925 15.6075 -12.1875 11.0625 C-13.5075 11.0625 -14.8275 11.0625 -16.1875 11.0625 C-15.26612913 7.00846818 -14.57298724 5.36596868 -11.25 2.75 C-7.23816488 0.53939697 -4.5092476 -0.05856166 0 0 Z " fill="#0CAACF" transform="translate(65.1875,45.9375)"/>
<path d="M0 0 C0 3 0 3 -1.25 4.5 C-8.990718 11.13490114 -15.4195859 12.58561221 -25.64453125 12.35546875 C-31.31677081 11.75456793 -35.21641987 10.00652764 -39 5.75 C-39.33 5.1725 -39.66 4.595 -40 4 C-36.68603398 4.41424575 -34.33756784 5.34074423 -31.5 7 C-26.0179428 9.90970729 -20.08913395 9.81435567 -14 10 C-14 9.34 -14 8.68 -14 8 C-8 4 -8 4 -3 4 C-3 3.34 -3 2.68 -3 2 C-2.01 1.34 -1.02 0.68 0 0 Z " fill="#1E1D99" transform="translate(99,143)"/>
<path d="M0 0 C5.75 1.625 5.75 1.625 8 5 C8.99 5.33 9.98 5.66 11 6 C11.33 7.65 11.66 9.3 12 11 C10.1875 12.5625 10.1875 12.5625 8 14 C7.01 13.67 6.02 13.34 5 13 C5 12.34 5 11.68 5 11 C4.34 11 3.68 11 3 11 C3 10.34 3 9.68 3 9 C2.401875 8.731875 1.80375 8.46375 1.1875 8.1875 C-0.99847854 7.00082594 -2.41332594 5.90400887 -4 4 C-4 3.34 -4 2.68 -4 2 C-2.68 2 -1.36 2 0 2 C0 1.34 0 0.68 0 0 Z " fill="#2626F8" transform="translate(167,104)"/>
<path d="M0 0 C0.33 0.99 0.66 1.98 1 3 C1.99 3.33 2.98 3.66 4 4 C4 3.34 4 2.68 4 2 C5.65 2 7.3 2 9 2 C8.01 2.7734375 8.01 2.7734375 7 3.5625 C6.01 4.366875 5.02 5.17125 4 6 C3.360625 6.50917969 2.72125 7.01835938 2.0625 7.54296875 C-2.27196312 11.13039372 -5.33675067 14.57785629 -8.08984375 19.49609375 C-8.39019531 19.99238281 -8.69054688 20.48867188 -9 21 C-9.33 21 -9.66 21 -10 21 C-10.93988899 13.95083261 -7.97527695 8.72585763 -4 3 C-1.796875 1.171875 -1.796875 1.171875 0 0 Z " fill="#15C4FA" transform="translate(44,37)"/>
<path d="M0 0 C0 0.66 0 1.32 0 2 C-0.99 2.495 -0.99 2.495 -2 3 C-1.67 3.66 -1.34 4.32 -1 5 C-1.33 5.66 -1.66 6.32 -2 7 C-3.32 7 -4.64 7 -6 7 C-6 7.66 -6 8.32 -6 9 C-9.96 9 -13.92 9 -18 9 C-18 7.02 -18 5.04 -18 3 C-16.86111328 2.92652344 -16.86111328 2.92652344 -15.69921875 2.8515625 C-14.20841797 2.73941406 -14.20841797 2.73941406 -12.6875 2.625 C-11.70136719 2.55539063 -10.71523437 2.48578125 -9.69921875 2.4140625 C-5.69616275 1.79999023 -4.30710281 0 0 0 Z " fill="#03CCFA" transform="translate(154,52)"/>
<path d="M0 0 C0.99 0 1.98 0 3 0 C4.03307771 1.76371818 5.05112049 3.53625033 6.0625 5.3125 C6.63097656 6.29863281 7.19945312 7.28476563 7.78515625 8.30078125 C9 11 9 11 8 14 C6.35 14.33 4.7 14.66 3 15 C2.34 13.35 1.68 11.7 1 10 C0.34 10 -0.32 10 -1 10 C-1.9765625 3.9453125 -1.9765625 3.9453125 -2 2 C-1.34 1.34 -0.68 0.68 0 0 Z " fill="#2726F5" transform="translate(49,124)"/>
<path d="M0 0 C0.79784912 0.00016113 1.59569824 0.00032227 2.41772461 0.00048828 C8.54386963 0.11876565 14.06259086 0.97434964 19.3125 4.375 C19.8075 5.365 19.8075 5.365 20.3125 6.375 C19.3225 6.705 18.3325 7.035 17.3125 7.375 C17.3125 6.715 17.3125 6.055 17.3125 5.375 C16.260625 5.436875 16.260625 5.436875 15.1875 5.5 C11.92878372 5.35831668 9.3565053 4.50765314 6.3125 3.375 C6.3125 2.715 6.3125 2.055 6.3125 1.375 C3.0125 1.375 -0.2875 1.375 -3.6875 1.375 C-3.6875 2.035 -3.6875 2.695 -3.6875 3.375 C-4.71875 3.478125 -5.75 3.58125 -6.8125 3.6875 C-10.69027133 4.18125862 -10.69027133 4.18125862 -13.875 6 C-16.6875 7.375 -16.6875 7.375 -19.0625 7.0625 C-19.59875 6.835625 -20.135 6.60875 -20.6875 6.375 C-13.56282716 2.18401597 -8.33234234 -0.01555993 0 0 Z " fill="#1D1C9D" transform="translate(139.6875,87.625)"/>
<path d="M0 0 C0.66 0 1.32 0 2 0 C2 0.99 2 1.98 2 3 C5.3 3 8.6 3 12 3 C12 3.33 12 3.66 12 4 C11.05125 4.28875 10.1025 4.5775 9.125 4.875 C5.94788422 5.76825109 5.94788422 5.76825109 4 8 C6.97 8.495 6.97 8.495 10 9 C10 9.33 10 9.66 10 10 C8.741875 10.020625 7.48375 10.04125 6.1875 10.0625 C5.47980469 10.07410156 4.77210937 10.08570313 4.04296875 10.09765625 C2 10 2 10 -1 9 C-1 8.34 -1 7.68 -1 7 C-2.65 7 -4.3 7 -6 7 C-6 5.68 -6 4.36 -6 3 C-5.01 2.34 -4.02 1.68 -3 1 C-2.01 1.33 -1.02 1.66 0 2 C0 1.34 0 0.68 0 0 Z " fill="#07CBFD" transform="translate(76,138)"/>
<path d="M0 0 C0.33 0 0.66 0 1 0 C1.75985032 22.9533248 1.75985032 22.9533248 -0.75 34 C-0.90694336 34.69722168 -1.06388672 35.39444336 -1.22558594 36.11279297 C-2.49352259 41.12734859 -4.57600463 45.43718518 -7 50 C-7.33 50 -7.66 50 -8 50 C-8.22036864 46.14354879 -7.60355101 43.50776784 -6 40 C-5.34 40 -4.68 40 -4 40 C-4 37.36 -4 34.72 -4 32 C-3.34 32 -2.68 32 -2 32 C-2.01160156 31.21753906 -2.02320313 30.43507813 -2.03515625 29.62890625 C-2.04417969 28.61699219 -2.05320313 27.60507813 -2.0625 26.5625 C-2.07410156 25.55316406 -2.08570313 24.54382813 -2.09765625 23.50390625 C-2 21 -2 21 -1 20 C-0.84344973 18.51361008 -0.74933057 17.02050873 -0.68359375 15.52734375 C-0.64169922 14.62822266 -0.59980469 13.72910156 -0.55664062 12.80273438 C-0.51732422 11.85720703 -0.47800781 10.91167969 -0.4375 9.9375 C-0.39431641 8.98810547 -0.35113281 8.03871094 -0.30664062 7.06054688 C-0.20020724 4.70718647 -0.09818992 2.35371646 0 0 Z " fill="#19B6FE" transform="translate(237,68)"/>
<path d="M0 0 C2.475 0.99 2.475 0.99 5 2 C4.95875 2.78375 4.9175 3.5675 4.875 4.375 C4.71271266 7.16116119 4.71271266 7.16116119 7 9 C7.18286133 12.11352539 7.18286133 12.11352539 7.08203125 16.09765625 C7.06412033 16.80595078 7.04620941 17.5142453 7.02775574 18.2440033 C6.98650878 19.74802541 6.93991464 21.25190883 6.88842773 22.75561523 C6.81360122 25.02904213 6.76404607 27.3020261 6.71679688 29.57617188 C6.51004215 37.17150606 5.98718932 43.90643184 3 51 C1.95763174 47.78568878 2.09975804 45.75521043 2.91796875 42.5 C4.19350339 36.63705394 4.33148179 30.98306058 4.3125 25 C4.32861328 23.98421875 4.34472656 22.9684375 4.36132812 21.921875 C4.36569297 15.11272203 3.30778507 9.3947564 1 3 C0.67 2.01 0.34 1.02 0 0 Z " fill="#164CF5" transform="translate(233,55)"/>
<path d="M0 0 C1.32 0.66 2.64 1.32 4 2 C3.34 2.66 2.68 3.32 2 4 C2.66 4.33 3.32 4.66 4 5 C3.67 5.99 3.34 6.98 3 8 C3.99 7.67 4.98 7.34 6 7 C8.5654594 9.5654594 8.54046087 11.47686668 9 15 C8.5875 14.62488281 8.175 14.24976563 7.75 13.86328125 C1.39662274 8.23316792 -4.64790545 3.91402167 -13 2 C-13 1.67 -13 1.34 -13 1 C-10.36 1 -7.72 1 -5 1 C-5 1.66 -5 2.32 -5 3 C-3.35 3 -1.7 3 0 3 C0 2.01 0 1.02 0 0 Z " fill="#14BCFC" transform="translate(233,36)"/>
<path d="M0 0 C1.8329821 -0.05498946 3.66646845 -0.09323089 5.5 -0.125 C6.5209375 -0.14820313 7.541875 -0.17140625 8.59375 -0.1953125 C17.45950658 0.3130451 24.21454054 3.88367717 31.9375 8 C33.5162793 8.81984375 33.5162793 8.81984375 35.12695312 9.65625 C42.86675613 13.73351227 42.86675613 13.73351227 44 16 C37.88971314 14.31745724 32.80098569 11.90311526 27.45703125 8.5 C21.34406785 4.76807958 16.14463879 3.27981468 9.125 2.3125 C8.24585937 2.18294922 7.36671875 2.05339844 6.4609375 1.91992188 C4.30861997 1.60409267 2.15447313 1.30077298 0 1 C0 0.67 0 0.34 0 0 Z " fill="#0F40EE" transform="translate(64,36)"/>
<path d="M0 0 C0 3.19610552 -0.54671542 4.41717626 -2 7.1875 C-2.37125 7.90292969 -2.7425 8.61835937 -3.125 9.35546875 C-3.41375 9.89816406 -3.7025 10.44085938 -4 11 C-4.99 11 -5.98 11 -7 11 C-7.0928125 11.8353125 -7.0928125 11.8353125 -7.1875 12.6875 C-8.33616138 15.956767 -10.48821144 17.67659558 -13 20 C-13.33 20.33 -13.66 20.66 -14 21 C-15.64340867 21.09854655 -17.2911461 21.12972411 -18.9375 21.125 C-19.83339844 21.12757813 -20.72929688 21.13015625 -21.65234375 21.1328125 C-24 21 -24 21 -26 20 C-25.67 19.34 -25.34 18.68 -25 18 C-24.34 18.33 -23.68 18.66 -23 19 C-20.12693772 19.50095023 -20.12693772 19.50095023 -17 19 C-15.01199807 17.37820895 -13.62828425 15.94227846 -12 14 C-10.64618631 12.49968142 -9.29199233 10.99970593 -7.9375 9.5 C-5.20025335 6.4005468 -2.5323795 3.27099018 0 0 Z " fill="#1D22A9" transform="translate(98,114)"/>
<path d="M0 0 C-0.33 1.65 -0.66 3.3 -1 5 C-2.65 5 -4.3 5 -6 5 C-6.33 5.99 -6.66 6.98 -7 8 C-7.66 8 -8.32 8 -9 8 C-9 8.66 -9 9.32 -9 10 C-9.99 10.33 -10.98 10.66 -12 11 C-12.33 12.65 -12.66 14.3 -13 16 C-13.99 15.67 -14.98 15.34 -16 15 C-16 14.01 -16 13.02 -16 12 C-16.99 11.34 -17.98 10.68 -19 10 C-18.02417969 9.44570313 -17.04835937 8.89140625 -16.04296875 8.3203125 C-14.75777981 7.58859909 -13.47262536 6.85682508 -12.1875 6.125 C-11.54490234 5.76019531 -10.90230469 5.39539062 -10.24023438 5.01953125 C-1.43323864 0 -1.43323864 0 0 0 Z " fill="#0EA6C8" transform="translate(176,38)"/>
<path d="M0 0 C1.3303125 0.7115625 1.3303125 0.7115625 2.6875 1.4375 C7.39694291 3.51548099 12.22299579 3.50040873 17.3046875 3.69140625 C18.63886719 3.84416016 18.63886719 3.84416016 20 4 C20.33 4.66 20.66 5.32 21 6 C19.68 6 18.36 6 17 6 C17 6.66 17 7.32 17 8 C12.71 8 8.42 8 4 8 C3.67 7.34 3.34 6.68 3 6 C3.66 5.67 4.32 5.34 5 5 C3.7625 4.319375 3.7625 4.319375 2.5 3.625 C1.675 3.08875 0.85 2.5525 0 2 C0 1.34 0 0.68 0 0 Z " fill="#1733EF" transform="translate(68,145)"/>
<path d="M0 0 C0.99 0 1.98 0 3 0 C1.63589551 5.59282842 -1.15383526 8.91193811 -5 13 C-7.39223697 10.60776303 -7.6758631 9.32240324 -8 6 C-6 3 -6 3 -2.875 2.3125 C-1.92625 2.209375 -0.9775 2.10625 0 2 C0 1.34 0 0.68 0 0 Z " fill="#1F1FC3" transform="translate(231,130)"/>
<path d="M0 0 C2.46800047 1.15173355 4.04783565 2.04783565 6 4 C6 5.32 6 6.64 6 8 C6.66 8 7.32 8 8 8 C8 18.56 8 29.12 8 40 C6.515 40.495 6.515 40.495 5 41 C5.15984375 39.88625 5.3196875 38.7725 5.484375 37.625 C6.08996642 32.74590884 6.22022737 27.91248439 6.25 23 C6.270625 22.14921875 6.29125 21.2984375 6.3125 20.421875 C6.36064839 12.57368679 4.34679642 6.62368978 0 0 Z " fill="#1089A6" transform="translate(221,52)"/>
<path d="M0 0 C3.91939465 3.80411834 7.49102731 7.81576108 11 12 C9.081875 12.185625 9.081875 12.185625 7.125 12.375 C3.65209064 12.69042399 3.65209064 12.69042399 1 15 C1 14.34 1 13.68 1 13 C0.34 13 -0.32 13 -1 13 C-0.67 11.35 -0.34 9.7 0 8 C0.99 8 1.98 8 3 8 C3.33 7.34 3.66 6.68 4 6 C2.68 5.34 1.36 4.68 0 4 C0 2.68 0 1.36 0 0 Z " fill="#2322D7" transform="translate(186,120)"/>
<path d="M0 0 C5.46806629 2.41238219 8.43161006 6.77324467 11 12 C11.71987647 15.09920843 11.89831047 17.79677975 12 21 C8.6433715 18.76224766 8.42003986 18.06679952 7.3125 14.375 C6.93544922 13.14910156 6.93544922 13.14910156 6.55078125 11.8984375 C6.36902344 11.27195312 6.18726563 10.64546875 6 10 C5.01 10 4.02 10 3 10 C2.67 9.01 2.34 8.02 2 7 C1.34 6.67 0.68 6.34 0 6 C0.99 5.34 1.98 4.68 3 4 C2.01 3.34 1.02 2.68 0 2 C0 1.34 0 0.68 0 0 Z " fill="#18A3C9" transform="translate(233,34)"/>
<path d="M0 0 C3.63 0.33 7.26 0.66 11 1 C7.89273898 3.33044576 4.99511974 5.24641785 1.625 7.125 C0.70976562 7.64320312 -0.20546875 8.16140625 -1.1484375 8.6953125 C-4.1337525 10.06119635 -6.75339709 10.60734301 -10 11 C-10 10.34 -10 9.68 -10 9 C-8.35 9 -6.7 9 -5 9 C-4.67 8.01 -4.34 7.02 -4 6 C-3.34 5.34 -2.68 4.68 -2 4 C-1.34 2.68 -0.68 1.36 0 0 Z " fill="#11C0FD" transform="translate(164,48)"/>
<path d="M0 0 C0 0.33 0 0.66 0 1 C-0.55945313 1.06316406 -1.11890625 1.12632813 -1.6953125 1.19140625 C-11.08849257 2.62605594 -19.46919992 6.94009947 -27.296875 12.2265625 C-30 14 -30 14 -32 14 C-32 13.01 -32 12.02 -32 11 C-31.34 11 -30.68 11 -30 11 C-30 10.34 -30 9.68 -30 9 C-27.09399739 7.74335022 -25.20395416 7 -22 7 C-22 6.01 -22 5.02 -22 4 C-19.36 3.67 -16.72 3.34 -14 3 C-14 2.34 -14 1.68 -14 1 C-9.23692563 0.04738513 -4.8333472 -0.08333357 0 0 Z " fill="#1E239B" transform="translate(210,46)"/>
<path d="M0 0 C4.63279846 -0.24818563 7.28834282 -0.28345667 11.6875 1.46875 C16.28368913 3.28244228 20.5990978 3.54781631 25.5 3.6875 C26.32242188 3.72166016 27.14484375 3.75582031 27.9921875 3.79101562 C29.9943455 3.8724988 31.99714568 3.93794575 34 4 C34 4.33 34 4.66 34 5 C21.61458859 6.33798605 11.64649694 5.31351738 0 1 C0 0.67 0 0.34 0 0 Z " fill="#09094B" transform="translate(116,68)"/>
<path d="M0 0 C6.76463575 1.90255381 12.03207449 7.40547148 16 13 C16.66 12.34 17.32 11.68 18 11 C19.32229189 13.64458379 19.09677194 15.67761301 19.0625 18.625 C19.05347656 19.62789062 19.04445312 20.63078125 19.03515625 21.6640625 C19.02355469 22.43492188 19.01195312 23.20578125 19 24 C18.34 23.67 17.68 23.34 17 23 C16.7525 21.989375 16.505 20.97875 16.25 19.9375 C14.11384908 11.96362366 8.22251081 7.03082879 1.7578125 2.34765625 C1.17773438 1.90292969 0.59765625 1.45820312 0 1 C0 0.67 0 0.34 0 0 Z " fill="#093DE7" transform="translate(228,41)"/>
<path d="M0 0 C0.99 0.33 1.98 0.66 3 1 C2.40832031 1.45890625 1.81664063 1.9178125 1.20703125 2.390625 C-2.88379822 5.56719079 -6.96818271 8.74853444 -11 12 C-11.31944345 8.48612204 -11.43883512 6.62449613 -9.375 3.6875 C-6.55677874 1.68507963 -4.40030986 1.37781221 -1 1 C-0.67 0.67 -0.34 0.34 0 0 Z " fill="#1834F1" transform="translate(123,102)"/>
<path d="M0 0 C0.33 0.66 0.66 1.32 1 2 C0.67 2.99 0.34 3.98 0 5 C-0.66 5 -1.32 5 -2 5 C-2 6.32 -2 7.64 -2 9 C-1.34 9.33 -0.68 9.66 0 10 C-0.97498145 11.5027237 -1.95509389 13.00211963 -2.9375 14.5 C-3.48277344 15.3353125 -4.02804688 16.170625 -4.58984375 17.03125 C-5.05519531 17.6809375 -5.52054688 18.330625 -6 19 C-6.33 19 -6.66 19 -7 19 C-7.95551713 11.83362154 -4.72623082 6.96609809 -1 1 C-0.67 0.67 -0.34 0.34 0 0 Z " fill="#1B8BB7" transform="translate(41,39)"/>
<path d="M0 0 C1.98 0 3.96 0 6 0 C2.41109282 3.83641802 0.4938334 4.9216152 -4.87109375 5.203125 C-6.39316128 5.22435698 -7.91531873 5.23977544 -9.4375 5.25 C-10.20126953 5.270625 -10.96503906 5.29125 -11.75195312 5.3125 C-12.86280273 5.32023438 -12.86280273 5.32023438 -13.99609375 5.328125 C-15.00434204 5.34214355 -15.00434204 5.34214355 -16.03295898 5.35644531 C-18 5 -18 5 -22 2 C-16.39 2.66 -10.78 3.32 -5 4 C-5 3.34 -5 2.68 -5 2 C-3.35 2 -1.7 2 0 2 C0 1.34 0 0.68 0 0 Z " fill="#2927C3" transform="translate(213,149)"/>
<path d="M0 0 C1.89712136 2.84568203 3.04670991 5.40008633 4.3125 8.5625 C6.32457277 13.48222689 8.53695603 18.22470323 10.984375 22.94140625 C12 25 12 25 13 28 C10 27 10 27 8.95678711 25.40527344 C8.6500708 24.73012695 8.34335449 24.05498047 8.02734375 23.359375 C7.68509766 22.61816406 7.34285156 21.87695312 6.99023438 21.11328125 C6.64283203 20.33339844 6.29542969 19.55351563 5.9375 18.75 C5.58623047 17.98558594 5.23496094 17.22117187 4.87304688 16.43359375 C-0.29286955 5.12521715 -0.29286955 5.12521715 0 0 Z " fill="#0D42EA" transform="translate(46,107)"/>
<path d="M0 0 C0.66 0 1.32 0 2 0 C2.54249536 8.00180661 0.60838688 14.46595398 -2 22 C-2.33 22 -2.66 22 -3 22 C-2.67 17.05 -2.34 12.1 -2 7 C-1.34 7 -0.68 7 0 7 C0 4.69 0 2.38 0 0 Z " fill="#1B1CA0" transform="translate(243,96)"/>
<path d="M0 0 C-3.89002115 3.89002115 -8.3351579 4.12766089 -13.6171875 4.1953125 C-15.70321489 4.1821098 -17.78919813 4.15839338 -19.875 4.125 C-20.94492188 4.11597656 -22.01484375 4.10695313 -23.1171875 4.09765625 C-25.74502439 4.07419342 -28.37239406 4.04136459 -31 4 C-31 3.67 -31 3.34 -31 3 C-29.42412109 2.92652344 -29.42412109 2.92652344 -27.81640625 2.8515625 C-18.77537417 2.45491189 -18.77537417 2.45491189 -9.875 0.9375 C-6.39543987 0.09567094 -3.55458154 -0.18228623 0 0 Z " fill="#272ACB" transform="translate(163,68)"/>
<path d="M0 0 C6.47283543 -0.35164297 11.26560813 -0.17221678 17 3 C17.33 3.66 17.66 4.32 18 5 C15.36 4.34 12.72 3.68 10 3 C10.33 3.99 10.66 4.98 11 6 C10.29875 5.71125 9.5975 5.4225 8.875 5.125 C5.94547497 3.97866412 2.99078347 2.97374346 0 2 C0 1.34 0 0.68 0 0 Z " fill="#22B5FD" transform="translate(210,46)"/>
<path d="M0 0 C0.66 0 1.32 0 2 0 C2.66 1.65 3.32 3.3 4 5 C7.72614153 3.88145414 7.72614153 3.88145414 10 1 C10.66 1 11.32 1 12 1 C11.44661458 2.953125 10.89322917 4.90625 10.33984375 6.859375 C9.96513841 9.21958796 10.27346676 10.74419051 11 13 C7.07969915 11.69323305 6.1779204 9.84347219 3.8125 6.5 C3.09707031 5.4996875 2.38164063 4.499375 1.64453125 3.46875 C0 1 0 1 0 0 Z " fill="#191BA7" transform="translate(48,134)"/>
<path d="M0 0 C0.33 0 0.66 0 1 0 C0.14151239 11.63476624 0.14151239 11.63476624 -2 15 C-5.125 16.8125 -5.125 16.8125 -8 18 C-6.65731636 14.51526757 -5.13966904 11.19804045 -3.4375 7.875 C-2.08662907 5.23739445 -0.93892243 2.8167673 0 0 Z " fill="#1398B3" transform="translate(221,108)"/>
<path d="M0 0 C0 3 0 3 -1.390625 4.53515625 C-2.31101562 5.29119141 -2.31101562 5.29119141 -3.25 6.0625 C-4.15492187 6.82240234 -4.15492187 6.82240234 -5.078125 7.59765625 C-8.15325144 9.84149851 -10.14562744 11 -14 11 C-14 10.01 -14 9.02 -14 8 C-8 4 -8 4 -3 4 C-3 3.34 -3 2.68 -3 2 C-2.01 1.34 -1.02 0.68 0 0 Z " fill="#12208F" transform="translate(99,143)"/>
<path d="M0 0 C1.32 0.66 2.64 1.32 4 2 C3.32453125 2.39832031 2.6490625 2.79664062 1.953125 3.20703125 C0.61507812 4.00173828 0.61507812 4.00173828 -0.75 4.8125 C-1.63171875 5.33457031 -2.5134375 5.85664062 -3.421875 6.39453125 C-5.71972797 7.82546696 -7.86506946 9.33894423 -10 11 C-10 9.68 -10 8.36 -10 7 C-10.66 6.67 -11.32 6.34 -12 6 C-11.401875 5.896875 -10.80375 5.79375 -10.1875 5.6875 C-7.92116717 5.17515064 -7.92116717 5.17515064 -6.5625 3.4375 C-5 2 -5 2 -2.3125 1.8125 C-1.1678125 1.9053125 -1.1678125 1.9053125 0 2 C0 1.34 0 0.68 0 0 Z " fill="#12B2D1" transform="translate(132,107)"/>
<path d="M0 0 C0.99966797 0.19916016 0.99966797 0.19916016 2.01953125 0.40234375 C8.66777016 1.67620211 15.25031187 2.50389139 22 3 C21.67 3.66 21.34 4.32 21 5 C16.38 5 11.76 5 7 5 C7 4.34 7 3.68 7 3 C5.824375 2.814375 5.824375 2.814375 4.625 2.625 C2 2 2 2 0 0 Z " fill="#17A7C7" transform="translate(126,50)"/>
<path d="M0 0 C1.67542976 0.28604898 3.34385343 0.61781233 5 1 C5 1.99 5 2.98 5 4 C4.34 4.66 3.68 5.32 3 6 C-4.15618661 5.65922921 -4.15618661 5.65922921 -7 3.4375 C-7.33 2.963125 -7.66 2.48875 -8 2 C-6.865625 1.855625 -5.73125 1.71125 -4.5625 1.5625 C-1.19222799 1.38828522 -1.19222799 1.38828522 0 0 Z " fill="#2624F4" transform="translate(85,133)"/>
<path d="M0 0 C1.46726798 3.81489674 0.43336419 6.29011622 -1 10 C-1.66 10 -2.32 10 -3 10 C-3 11.65 -3 13.3 -3 15 C-3.61875 15.2475 -4.2375 15.495 -4.875 15.75 C-7.35068687 17.20628639 -7.95125002 18.37812506 -9 21 C-9 17.93937126 -8.63558577 16.91367601 -7.28515625 14.27734375 C-6.75051758 13.22256836 -6.75051758 13.22256836 -6.20507812 12.14648438 C-5.82802734 11.41751953 -5.45097656 10.68855469 -5.0625 9.9375 C-4.50272461 8.83825195 -4.50272461 8.83825195 -3.93164062 7.71679688 C-3.23976068 6.35921622 -2.54542884 5.00288047 -1.84790039 3.64819336 C-1.22430797 2.43602162 -0.6096274 1.2192548 0 0 Z " fill="#103EED" transform="translate(230,116)"/>
<path d="M0 0 C0 0.66 0 1.32 0 2 C-6.5 5 -6.5 5 -11 5 C-11 5.66 -11 6.32 -11 7 C-12.98 7 -14.96 7 -17 7 C-14.64185996 4.30166927 -12.38202294 3.11535036 -9.0625 1.8125 C-8.20785156 1.46832031 -7.35320312 1.12414062 -6.47265625 0.76953125 C-4 0 -4 0 0 0 Z " fill="#148CA8" transform="translate(198,28)"/>
<path d="M0 0 C1.8871875 0.0309375 1.8871875 0.0309375 3.8125 0.0625 C1.65588244 1.50024504 -0.42460217 2.76433869 -2.6875 4 C-5.22526448 5.43252244 -7.27918176 6.81741972 -9.1875 9.0625 C-9.5175 7.4125 -9.8475 5.7625 -10.1875 4.0625 C-8.8675 4.0625 -7.5475 4.0625 -6.1875 4.0625 C-6.5175 3.0725 -6.8475 2.0825 -7.1875 1.0625 C-4.43671116 0.14557039 -2.82801087 -0.04636083 0 0 Z " fill="#129ABA" transform="translate(65.1875,46.9375)"/>
<path d="M0 0 C7.53828658 0.61789234 7.53828658 0.61789234 9.8125 2.5 C10.204375 2.995 10.59625 3.49 11 4 C11.99 4.33 12.98 4.66 14 5 C14 5.99 14 6.98 14 8 C8.76481294 6.56032356 4.36973991 4.18303389 0 1 C0 0.67 0 0.34 0 0 Z " fill="#1B1A91" transform="translate(102,60)"/>
<path d="M0 0 C0.86367187 -0.01224609 1.72734375 -0.02449219 2.6171875 -0.03710938 C3.4525 -0.03904297 4.2878125 -0.04097656 5.1484375 -0.04296875 C6.2919165 -0.04913208 6.2919165 -0.04913208 7.45849609 -0.05541992 C9.88910069 0.21711237 11.51591986 0.97910424 13.625 2.1875 C12.40683594 2.16429687 11.18867187 2.14109375 9.93359375 2.1171875 C8.30990201 2.0984165 6.68620358 2.08021773 5.0625 2.0625 C4.26263672 2.04574219 3.46277344 2.02898438 2.63867188 2.01171875 C-2.44000335 1.97026018 -6.56311906 2.54693925 -11.375 4.1875 C-11.375 3.1975 -11.375 2.2075 -11.375 1.1875 C-7.86791173 -0.56604414 -3.86288251 0.00285716 0 0 Z " fill="#1E42DF" transform="translate(64.375,44.8125)"/>
<path d="M0 0 C3.49883745 1.58012014 4.30436658 2.60873316 6 6 C5.34 6 4.68 6 4 6 C3.67 6.99 3.34 7.98 3 9 C2.01 9.33 1.02 9.66 0 10 C-0.19412181 8.52168779 -0.38012131 7.04230684 -0.5625 5.5625 C-0.66691406 4.73878906 -0.77132812 3.91507813 -0.87890625 3.06640625 C-0.91886719 2.38449219 -0.95882812 1.70257813 -1 1 C-0.67 0.67 -0.34 0.34 0 0 Z " fill="#201FC2" transform="translate(219,139)"/>
<path d="M0 0 C2.475 0.495 2.475 0.495 5 1 C5.2475 1.94875 5.495 2.8975 5.75 3.875 C6.6857077 7.08693191 6.6857077 7.08693191 9.125 8.375 C9.74375 8.58125 10.3625 8.7875 11 9 C10.67 10.32 10.34 11.64 10 13 C2.51708428 4.738041 2.51708428 4.738041 0 0 Z " fill="#127993" transform="translate(163,124)"/>
<path d="M0 0 C0.90105469 0.00902344 1.80210938 0.01804688 2.73046875 0.02734375 C3.41753906 0.03894531 4.10460937 0.05054688 4.8125 0.0625 C4.8125 0.3925 4.8125 0.7225 4.8125 1.0625 C3.87277344 1.15337891 3.87277344 1.15337891 2.9140625 1.24609375 C2.09679687 1.32988281 1.27953125 1.41367187 0.4375 1.5 C-0.37460938 1.58121094 -1.18671875 1.66242187 -2.0234375 1.74609375 C-4.23022805 1.95340114 -4.23022805 1.95340114 -6.1875 3.0625 C-6.1875 3.7225 -6.1875 4.3825 -6.1875 5.0625 C-7.5075 5.0625 -8.8275 5.0625 -10.1875 5.0625 C-10.5175 6.0525 -10.8475 7.0425 -11.1875 8.0625 C-11.1875 7.4025 -11.1875 6.7425 -11.1875 6.0625 C-12.1775 5.7325 -13.1675 5.4025 -14.1875 5.0625 C-9.21630553 1.63789937 -6.0437958 -0.07849085 0 0 Z " fill="#1DBEFC" transform="translate(65.1875,45.9375)"/>
<path d="M0 0 C0.66 0.33 1.32 0.66 2 1 C1.67 1.99 1.34 2.98 1 4 C0.34 4 -0.32 4 -1 4 C-1 4.66 -1 5.32 -1 6 C-1.66 6 -2.32 6 -3 6 C-3.226875 6.639375 -3.45375 7.27875 -3.6875 7.9375 C-5 10 -5 10 -7.625 10.75 C-8.40875 10.8325 -9.1925 10.915 -10 11 C-6.79239749 7.19364503 -3.59253891 3.45436433 0 0 Z " fill="#2021B2" transform="translate(114,97)"/>
<path d="M0 0 C0 0.66 0 1.32 0 2 C-1.03125 2.103125 -2.0625 2.20625 -3.125 2.3125 C-7.00277133 2.80625862 -7.00277133 2.80625862 -10.1875 4.625 C-13 6 -13 6 -15.375 5.6875 C-15.91125 5.460625 -16.4475 5.23375 -17 5 C-11.15701203 1.37734746 -6.97661644 0 0 0 Z " fill="#2221B9" transform="translate(136,89)"/>
<path d="M0 0 C0.66 0 1.32 0 2 0 C1.52433594 1.68609375 1.52433594 1.68609375 1.0390625 3.40625 C-0.13429813 8.09969251 -0.43659172 12.67988822 -0.625 17.5 C-0.66367187 18.32242188 -0.70234375 19.14484375 -0.7421875 19.9921875 C-0.83531692 21.9944701 -0.91868985 23.99720262 -1 26 C-1.33 26 -1.66 26 -2 26 C-2.05814085 22.41673499 -2.09364357 18.83359162 -2.125 15.25 C-2.14175781 14.23421875 -2.15851562 13.2184375 -2.17578125 12.171875 C-2.18222656 11.1921875 -2.18867187 10.2125 -2.1953125 9.203125 C-2.20578613 8.30239258 -2.21625977 7.40166016 -2.22705078 6.47363281 C-1.98721676 3.86073144 -1.32312064 2.24335334 0 0 Z " fill="#1350F4" transform="translate(43,60)"/>
<path d="M0 0 C-1.93269959 1.17460192 -3.87133313 2.33944472 -5.8125 3.5 C-6.89144531 4.1496875 -7.97039062 4.799375 -9.08203125 5.46875 C-12 7 -12 7 -15 7 C-15 6.01 -15 5.02 -15 4 C-13.35 4 -11.7 4 -10 4 C-10 3.34 -10 2.68 -10 2 C-8.68 2 -7.36 2 -6 2 C-6 1.34 -6 0.68 -6 0 C-2.25 -1.125 -2.25 -1.125 0 0 Z " fill="#191892" transform="translate(178,61)"/>
<path d="M0 0 C0.66 0.33 1.32 0.66 2 1 C2.02712066 2.43739513 2.04645067 3.87493863 2.0625 5.3125 C2.07410156 6.11300781 2.08570313 6.91351563 2.09765625 7.73828125 C2 10 2 10 1 13 C0.34 13 -0.32 13 -1 13 C-1.02708567 11.39592672 -1.04643483 9.7917215 -1.0625 8.1875 C-1.07410156 7.29417969 -1.08570313 6.40085937 -1.09765625 5.48046875 C-1 3 -1 3 0 0 Z " fill="#2A27E8" transform="translate(246,65)"/>
<path d="M0 0 C0 3.51716303 -0.82445585 4.37121748 -3 7 C-4.65 6.67 -6.3 6.34 -8 6 C-8 5.34 -8 4.68 -8 4 C-8.99 3.67 -9.98 3.34 -11 3 C-10.67 2.34 -10.34 1.68 -10 1 C-8.515 1.99 -8.515 1.99 -7 3 C-3.67759676 2.6758631 -2.39223697 2.39223697 0 0 Z " fill="#184BC6" transform="translate(208,131)"/>
<path d="M0 0 C1.32 0 2.64 0 4 0 C4 0.66 4 1.32 4 2 C6.56732026 2.51346405 9.08490935 3.00987318 11.6875 3.3125 C14 4 14 4 15.3125 6.0625 C15.6528125 7.0215625 15.6528125 7.0215625 16 8 C10.31497465 6.35433477 5.23318364 3.70967216 0 1 C0 0.67 0 0.34 0 0 Z " fill="#19AEFD" transform="translate(105,49)"/>
<path d="M0 0 C0.66 0 1.32 0 2 0 C0.44759763 4.96768758 -2.51054781 9.17867057 -6 13 C-6.66 13 -7.32 13 -8 13 C-7.67 11.35 -7.34 9.7 -7 8 C-6.01 8 -5.02 8 -4 8 C-4 7.34 -4 6.68 -4 6 C-3.34 6 -2.68 6 -2 6 C-2 5.01 -2 4.02 -2 3 C-1.34 3 -0.68 3 0 3 C0 2.01 0 1.02 0 0 Z " fill="#19B8FE" transform="translate(221,130)"/>
<path d="M0 0 C3.67033927 3.27708863 5.69281189 6.71522208 8 11 C4.20167325 10.45738189 2.30727513 9.04889927 0 6 C-0.25 2.75 -0.25 2.75 0 0 Z " fill="#1486A6" transform="translate(64,121)"/>
<path d="M0 0 C3.34373475 0.55728913 6.03312999 1.35173889 9 3 C9 3.66 9 4.32 9 5 C9.66 5.66 10.32 6.32 11 7 C5.95904225 6.55520961 3.58884285 4.33845847 0 1 C0 0.67 0 0.34 0 0 Z " fill="#15147F" transform="translate(59,147)"/>
<path d="M0 0 C0.99 0.495 0.99 0.495 2 1 C2 2.32 2 3.64 2 5 C2.66 5 3.32 5 4 5 C4 5.66 4 6.32 4 7 C4.66 7 5.32 7 6 7 C6 9.31 6 11.62 6 14 C3.2079853 12.60399265 2.99837067 10.99583616 1.875 8.125 C1.34519531 6.79855469 1.34519531 6.79855469 0.8046875 5.4453125 C0 3 0 3 0 0 Z " fill="#151583" transform="translate(39,114)"/>
<path d="M0 0 C0.66 0.33 1.32 0.66 2 1 C0.4169423 5.2742558 -2.50568404 7.26531794 -6 10 C-6 6.41087588 -5.33563446 5.89142971 -3 3.3125 C-2.443125 2.68988281 -1.88625 2.06726562 -1.3125 1.42578125 C-0.879375 0.95527344 -0.44625 0.48476563 0 0 Z " fill="#1334ED" transform="translate(44,45)"/>
<path d="M0 0 C1.4540625 0.0309375 1.4540625 0.0309375 2.9375 0.0625 C2.6075 1.3825 2.2775 2.7025 1.9375 4.0625 C0.2875 4.3925 -1.3625 4.7225 -3.0625 5.0625 C-3.625 3.125 -3.625 3.125 -4.0625 1.0625 C-3.0625 0.0625 -3.0625 0.0625 0 0 Z " fill="#2823FB" transform="translate(192.0625,131.9375)"/>
<path d="M0 0 C0.66 0.33 1.32 0.66 2 1 C1.01 2.485 1.01 2.485 0 4 C-0.16713569 6.62531524 -0.16713569 6.62531524 0 9 C-3.875 8.125 -3.875 8.125 -5 7 C-5 6.01 -5 5.02 -5 4 C-2.5 1.8125 -2.5 1.8125 0 0 Z " fill="#0B8BAC" transform="translate(48,32)"/>
<path d="M0 0 C0.99 0 1.98 0 3 0 C2.52797514 4.24822374 0.03344482 6.19989709 -3 9 C-3.33 7.35 -3.66 5.7 -4 4 C-2.68 4 -1.36 4 0 4 C0 2.68 0 1.36 0 0 Z " fill="#139BB8" transform="translate(105,133)"/>
<path d="M0 0 C0 3.05166955 -0.42225175 4.41446817 -1.6875 7.125 C-2.00074219 7.82882813 -2.31398438 8.53265625 -2.63671875 9.2578125 C-4 11 -4 11 -6.64453125 11.7421875 C-7.81048828 11.86980469 -7.81048828 11.86980469 -9 12 C-8.06692579 10.55962331 -7.12834923 9.12281015 -6.1875 7.6875 C-5.66542969 6.88699219 -5.14335938 6.08648437 -4.60546875 5.26171875 C-3.19610151 3.2762598 -1.77903343 1.6508148 0 0 Z " fill="#1A1A9C" transform="translate(98,114)"/>
<path d="M0 0 C1.98 0.99 1.98 0.99 4 2 C3.01 2.33 2.02 2.66 1 3 C0.67 2.01 0.34 1.02 0 0 Z M-2 3 C-1.01 3.33 -0.02 3.66 1 4 C0 8 0 8 -1 12 C-3.14809171 8.77786243 -3.29386153 7.72224599 -3 4 C-2.67 3.67 -2.34 3.34 -2 3 Z " fill="#2223CA" transform="translate(48,121)"/>
<path d="M0 0 C0.33 0 0.66 0 1 0 C1.31985731 6.71700347 0.4793824 11.75726932 -2 18 C-3.51553092 14.02549507 -2.49888623 10.79518851 -1.5625 6.75 C-1.27503906 5.48671875 -0.98757812 4.2234375 -0.69140625 2.921875 C-0.46324219 1.95765625 -0.23507813 0.9934375 0 0 Z " fill="#0C3BEA" transform="translate(238,88)"/>
<path d="M0 0 C0.99 0.33 1.98 0.66 3 1 C3 1.99 3 2.98 3 4 C2.34 4 1.68 4 1 4 C0.67 5.32 0.34 6.64 0 8 C0 7.34 0 6.68 0 6 C-0.99 5.67 -1.98 5.34 -3 5 C-2.625 3.0625 -2.625 3.0625 -2 1 C-1.34 0.67 -0.68 0.34 0 0 Z " fill="#03CEFA" transform="translate(50,56)"/>
<path d="M0 0 C0.66 0 1.32 0 2 0 C2.33 0.66 2.66 1.32 3 2 C4.64363134 2.72159424 6.31050386 3.39351421 8 4 C7.67 4.66 7.34 5.32 7 6 C2.44615385 6.36923077 2.44615385 6.36923077 0.1875 4.5 C-0.204375 4.005 -0.59625 3.51 -1 3 C-0.67 2.01 -0.34 1.02 0 0 Z " fill="#2426FA" transform="translate(66,145)"/>
<path d="M0 0 C3.34373475 0.55728913 6.03312999 1.35173889 9 3 C9 4.65 9 6.3 9 8 C7.68388323 7.04663979 6.37221039 6.08714226 5.0625 5.125 C4.33160156 4.59132813 3.60070312 4.05765625 2.84765625 3.5078125 C1 2 1 2 0 0 Z " fill="#1395B0" transform="translate(150,111)"/>
<path d="M0 0 C4.23429756 1.31061591 8.07407404 2.94356259 12 5 C10.02 5.99 10.02 5.99 8 7 C7.67 6.34 7.34 5.68 7 5 C6.01 5 5.02 5 4 5 C4 4.34 4 3.68 4 3 C2.68 2.67 1.36 2.34 0 2 C0 1.34 0 0.68 0 0 Z " fill="#1584A1" transform="translate(114,44)"/>
<path d="M0 0 C2.375 1.5625 2.375 1.5625 4 3 C2.68 3.33 1.36 3.66 0 4 C0 3.34 0 2.68 0 2 C-1.670625 2.061875 -1.670625 2.061875 -3.375 2.125 C-7 2 -7 2 -9 0 C-5.43564899 -1.188117 -3.62175183 -0.88695963 0 0 Z " fill="#138DA8" transform="translate(226,29)"/>
<path d="M0 0 C0.66 0.99 1.32 1.98 2 3 C0.625 5.5 0.625 5.5 -1 8 C-1.66 8 -2.32 8 -3 8 C-3.66 6.35 -4.32 4.7 -5 3 C-4.01 3 -3.02 3 -2 3 C-1.34 2.01 -0.68 1.02 0 0 Z " fill="#02CAF7" transform="translate(172,121)"/>
<path d="M0 0 C0.66 0 1.32 0 2 0 C1.42365861 4.75481646 -0.55068521 7.97048212 -3 12 C-3.33 12 -3.66 12 -4 12 C-4 10.02 -4 8.04 -4 6 C-3.34 6 -2.68 6 -2 6 C-2 5.34 -2 4.68 -2 4 C-1.34 4 -0.68 4 0 4 C0 2.68 0 1.36 0 0 Z " fill="#18BDFE" transform="translate(227,118)"/>
<path d="M0 0 C0.33 0 0.66 0 1 0 C1.07654536 4.51617599 1.10228696 8.59085217 0 13 C-0.99 13.33 -1.98 13.66 -3 14 C-2.68872484 12.41642541 -2.37592711 10.83315007 -2.0625 9.25 C-1.80146484 7.92742187 -1.80146484 7.92742187 -1.53515625 6.578125 C-1.07631512 4.36764947 -0.56663926 2.18487932 0 0 Z " fill="#107687" transform="translate(225,94)"/>
<path d="M0 0 C0.33 0 0.66 0 1 0 C1 3.96 1 7.92 1 12 C0.01 12.33 -0.98 12.66 -2 13 C-1.48041715 8.62065881 -0.94324258 4.31196609 0 0 Z " fill="#1893AF" transform="translate(228,80)"/>
<path d="M0 0 C0.33 0.66 0.66 1.32 1 2 C0.00390625 4.3828125 0.00390625 4.3828125 -1.4375 7.125 C-1.91058594 8.03507812 -2.38367188 8.94515625 -2.87109375 9.8828125 C-3.24363281 10.58148438 -3.61617187 11.28015625 -4 12 C-4.33 12 -4.66 12 -5 12 C-4.67 9.36 -4.34 6.72 -4 4 C-3.01 4 -2.02 4 -1 4 C-0.67 2.68 -0.34 1.36 0 0 Z " fill="#171687" transform="translate(239,118)"/>
<path d="M0 0 C2 2 2 2 2.1953125 4.6015625 C2.17210937 5.59929688 2.14890625 6.59703125 2.125 7.625 C2.10695312 8.62789062 2.08890625 9.63078125 2.0703125 10.6640625 C2.03550781 11.82035156 2.03550781 11.82035156 2 13 C1.34 12.67 0.68 12.34 0 12 C-0.44921875 10.0390625 -0.44921875 10.0390625 -0.6875 7.625 C-0.77386719 6.83351563 -0.86023438 6.04203125 -0.94921875 5.2265625 C-1 3 -1 3 0 0 Z " fill="#2446B0" transform="translate(245,52)"/>
<path d="M0 0 C3.53600465 1.91135386 5.78972846 3.62642766 8 7 C7.67 7.66 7.34 8.32 7 9 C2.25 7.125 2.25 7.125 0 6 C0.99 5.34 1.98 4.68 3 4 C2.01 3.34 1.02 2.68 0 2 C0 1.34 0 0.68 0 0 Z " fill="#0C7B94" transform="translate(233,34)"/>
<path d="M0 0 C2 1.8125 2 1.8125 4 4 C4 4.99 4 5.98 4 7 C2.68 7 1.36 7 0 7 C-1.125 2.25 -1.125 2.25 0 0 Z " fill="#2326F9" transform="translate(59,137)"/>
<path d="M0 0 C2.66666667 2.66666667 5.33333333 5.33333333 8 8 C7.67 8.66 7.34 9.32 7 10 C4.625 8.9375 4.625 8.9375 2 7 C0.6875 3.3125 0.6875 3.3125 0 0 Z " fill="#191894" transform="translate(178,110)"/>
<path d="M0 0 C4.92127034 -0.16682272 8.50343896 -0.24828052 13 2 C13 2.33 13 2.66 13 3 C8.17639811 3.19294408 4.50353262 2.75747614 0 1 C0 0.67 0 0.34 0 0 Z " fill="#1B1B91" transform="translate(116,68)"/>
<path d="M0 0 C2.97 0 5.94 0 9 0 C9.66 1.65 10.32 3.3 11 5 C10.29875 4.71125 9.5975 4.4225 8.875 4.125 C5.94547497 2.97866412 2.99078347 1.97374346 0 1 C0 0.67 0 0.34 0 0 Z " fill="#108399" transform="translate(210,47)"/>
<path d="M0 0 C2.64 0 5.28 0 8 0 C8 0.66 8 1.32 8 2 C9.32 2.33 10.64 2.66 12 3 C12 3.66 12 4.32 12 5 C10.56068883 4.54738642 9.12361001 4.08767021 7.6875 3.625 C6.88699219 3.36976562 6.08648437 3.11453125 5.26171875 2.8515625 C3 2 3 2 0 0 Z " fill="#17AEFE" transform="translate(220,37)"/>
<path d="M0 0 C2.02054804 1.64169528 4.02043058 3.30911778 6 5 C6 5.33 6 5.66 6 6 C4.02 6 2.04 6 0 6 C0 4.02 0 2.04 0 0 Z " fill="#1C1CAC" transform="translate(191,126)"/>
<path d="M0 0 C1.258125 0.12375 2.51625 0.2475 3.8125 0.375 C4.87404297 0.47941406 4.87404297 0.47941406 5.95703125 0.5859375 C8 1 8 1 11 3 C11 3.66 11 4.32 11 5 C9.53932801 4.54917531 8.08151968 4.08906463 6.625 3.625 C5.81289062 3.36976562 5.00078125 3.11453125 4.1640625 2.8515625 C2 2 2 2 0 0 Z " fill="#1C1B9A" transform="translate(78,47)"/>
<path d="M0 0 C1.32 0.66 2.64 1.32 4 2 C3.34 2.66 2.68 3.32 2 4 C2.66 4.33 3.32 4.66 4 5 C3.67 5.66 3.34 6.32 3 7 C1.0625 6.6875 1.0625 6.6875 -1 6 C-1.33 5.01 -1.66 4.02 -2 3 C-1.34 3 -0.68 3 0 3 C0 2.01 0 1.02 0 0 Z " fill="#10CCF8" transform="translate(233,36)"/>
<path d="M0 0 C0.99 0.66 1.98 1.32 3 2 C2.34 2 1.68 2 1 2 C0.67 2.99 0.34 3.98 0 5 C-3.0625 6.1875 -3.0625 6.1875 -6 7 C-4.02 4.69 -2.04 2.38 0 0 Z " fill="#15BFFD" transform="translate(116,110)"/>
<path d="M0 0 C1.32 0.66 2.64 1.32 4 2 C0.04 3.98 0.04 3.98 -4 6 C-4.33 4.68 -4.66 3.36 -5 2 C-3.35 2 -1.7 2 0 2 C0 1.34 0 0.68 0 0 Z " fill="#1397BA" transform="translate(132,107)"/>
<path d="M0 0 C-2.3129482 2.3129482 -3.47904875 2.49580975 -6.625 3.125 C-7.44226563 3.29257813 -8.25953125 3.46015625 -9.1015625 3.6328125 C-10.04128906 3.81457031 -10.04128906 3.81457031 -11 4 C-7.26280719 0.48264206 -5.13496308 -0.47767098 0 0 Z " fill="#121177" transform="translate(163,68)"/>
<path d="M0 0 C2.36841312 1.57894208 4.06745228 2.9754262 6 5 C4.35 5.33 2.7 5.66 1 6 C0.67 4.02 0.34 2.04 0 0 Z " fill="#2C27F1" transform="translate(172,55)"/>
<path d="M0 0 C1.98 0 3.96 0 6 0 C4.68 1.32 3.36 2.64 2 4 C1.01 3.67 0.02 3.34 -1 3 C-0.67 2.01 -0.34 1.02 0 0 Z " fill="#16137E" transform="translate(213,149)"/>
<path d="M0 0 C1.32 0.33 2.64 0.66 4 1 C-0.75 5 -0.75 5 -3 5 C-3 4.01 -3 3.02 -3 2 C-2.01 2 -1.02 2 0 2 C0 1.34 0 0.68 0 0 Z " fill="#18B4FE" transform="translate(209,143)"/>
<path d="M0 0 C0.86625 0.3403125 0.86625 0.3403125 1.75 0.6875 C0 2.25 0 2.25 -2.25 3.6875 C-4.5 3.375 -4.5 3.375 -6.25 2.6875 C-2.80384615 -0.38942308 -2.80384615 -0.38942308 0 0 Z " fill="#1CADFE" transform="translate(132.25,99.3125)"/>
<path d="M0 0 C1.32 0.33 2.64 0.66 4 1 C2.71034824 2.37562854 1.37310707 3.70766393 0 5 C-0.66 5 -1.32 5 -2 5 C-2 4.01 -2 3.02 -2 2 C-1.34 2 -0.68 2 0 2 C0 1.34 0 0.68 0 0 Z " fill="#1F20B4" transform="translate(180,55)"/>
<path d="M0 0 C3.37503669 1.1858237 5.64722731 2.27573689 8 5 C5.03 4.505 5.03 4.505 2 4 C2 3.34 2 2.68 2 2 C1.01 1.67 0.02 1.34 -1 1 C-0.67 0.67 -0.34 0.34 0 0 Z " fill="#137B91" transform="translate(106,39)"/>
<path d="M0 0 C-0.33 1.65 -0.66 3.3 -1 5 C-2.65 5 -4.3 5 -6 5 C-3.74193548 0 -3.74193548 0 0 0 Z " fill="#159EBF" transform="translate(176,38)"/>
</svg>
